<svg width="20" height="20" viewBox="0 0 20 20" fill="none" xmlns="http://www.w3.org/2000/svg">
<path d="M13.4498 1.78027C13.4098 2.03027 13.3898 2.28027 13.3898 2.53026C13.3898 4.78023 15.2098 6.5992 17.4497 6.5992C17.6997 6.5992 17.9397 6.5702 18.1897 6.5302V14.5991C18.1897 17.99 16.1898 20 12.7898 20H5.40092C1.99997 20 0 17.99 0 14.5991V7.20019C0 3.80024 1.99997 1.78027 5.40092 1.78027H13.4498ZM13.6508 7.86018C13.3798 7.83018 13.1108 7.95018 12.9498 8.17018L10.5308 11.3001L7.75988 9.12016C7.58989 8.99017 7.38989 8.93917 7.18989 8.96017C6.9909 8.99017 6.8109 9.09916 6.6899 9.25916L3.73094 13.1101L3.66995 13.2001C3.49995 13.5191 3.57995 13.9291 3.87994 14.1501C4.01994 14.2401 4.16994 14.3001 4.33994 14.3001C4.57093 14.3101 4.78993 14.1891 4.92993 14.0001L7.43989 10.7691L10.2898 12.9101L10.3798 12.9691C10.6998 13.1391 11.0998 13.0601 11.3298 12.7591L14.2198 9.03016L14.1798 9.05016C14.3398 8.83017 14.3698 8.55017 14.2598 8.30018C14.1508 8.05018 13.9098 7.88018 13.6508 7.86018ZM17.5898 0C18.9198 0 19.9998 1.07998 19.9998 2.40996C19.9998 3.73994 18.9198 4.81993 17.5898 4.81993C16.2599 4.81993 15.1799 3.73994 15.1799 2.40996C15.1799 1.07998 16.2599 0 17.5898 0Z" fill="#DADEE5"/>
</svg>
