<svg width="9" height="12" viewBox="0 0 9 12" fill="none" xmlns="http://www.w3.org/2000/svg">
<path d="M0.75 11.25C0.335156 11.25 0 10.9148 0 10.5C0 10.0852 0.335156 9.75 0.75 9.75H8.25C8.66484 9.75 9 10.0852 9 10.5C9 10.9148 8.66484 11.25 8.25 11.25H0.75ZM5.02969 8.02969C4.73672 8.32266 4.26094 8.32266 3.96797 8.02969L0.967969 5.02969C0.675 4.73672 0.675 4.26094 0.967969 3.96797C1.26094 3.675 1.73672 3.675 2.02969 3.96797L3.75 5.68828V1.5C3.75 1.08516 4.08516 0.75 4.5 0.75C4.91484 0.75 5.25 1.08516 5.25 1.5V5.68828L6.97031 3.96797C7.26328 3.675 7.73906 3.675 8.03203 3.96797C8.325 4.26094 8.325 4.73672 8.03203 5.02969L5.03203 8.02969H5.02969Z" fill="#3B3E45"/>
</svg>
