<svg width="18" height="17" viewBox="0 0 18 17" fill="none" xmlns="http://www.w3.org/2000/svg">
<g clip-path="url(#clip0_51_1707)">
<path d="M9.00167 4.65419C6.8734 4.65419 5.15672 6.37125 5.15672 8.5C5.15672 10.6288 6.8734 12.3458 9.00167 12.3458C11.1299 12.3458 12.8466 10.6288 12.8466 8.5C12.8466 6.37125 11.1299 4.65419 9.00167 4.65419ZM9.00167 11.0003C7.62632 11.0003 6.50195 9.879 6.50195 8.5C6.50195 7.121 7.62298 5.99972 9.00167 5.99972C10.3804 5.99972 11.5014 7.121 11.5014 8.5C11.5014 9.879 10.377 11.0003 9.00167 11.0003ZM13.9007 4.49688C13.9007 4.99559 13.4992 5.3939 13.0039 5.3939C12.5053 5.3939 12.1071 4.99225 12.1071 4.49688C12.1071 4.00151 12.5086 3.59985 13.0039 3.59985C13.4992 3.59985 13.9007 4.00151 13.9007 4.49688ZM16.4473 5.40729C16.3904 4.20568 16.116 3.1413 15.2359 2.26436C14.3592 1.38743 13.295 1.11296 12.0937 1.05272C10.8555 0.982428 7.14445 0.982428 5.9063 1.05272C4.70831 1.10962 3.64417 1.38408 2.76408 2.26102C1.88399 3.13796 1.61294 4.20233 1.5527 5.40394C1.48243 6.64236 1.48243 10.3543 1.5527 11.5927C1.60959 12.7943 1.88399 13.8587 2.76408 14.7356C3.64417 15.6126 4.70496 15.887 5.9063 15.9473C7.14445 16.0176 10.8555 16.0176 12.0937 15.9473C13.295 15.8904 14.3592 15.6159 15.2359 14.7356C16.1127 13.8587 16.3871 12.7943 16.4473 11.5927C16.5176 10.3543 16.5176 6.64571 16.4473 5.40729ZM14.8477 12.9215C14.5867 13.5775 14.0814 14.083 13.4222 14.3474C12.435 14.739 10.0926 14.6486 9.00167 14.6486C7.91076 14.6486 5.56497 14.7356 4.58115 14.3474C3.92526 14.0863 3.41997 13.5809 3.15561 12.9215C2.76408 11.9341 2.85443 9.59115 2.85443 8.5C2.85443 7.40885 2.76743 5.06254 3.15561 4.07849C3.41662 3.42246 3.92192 2.91705 4.58115 2.65263C5.56832 2.26102 7.91076 2.35139 9.00167 2.35139C10.0926 2.35139 12.4384 2.26436 13.4222 2.65263C14.0781 2.9137 14.5834 3.41911 14.8477 4.07849C15.2393 5.06588 15.1489 7.40885 15.1489 8.5C15.1489 9.59115 15.2393 11.9375 14.8477 12.9215Z" fill="#2E392F" stroke="#2E392F" stroke-width="0.5"/>
</g>
<defs>
<clipPath id="clip0_51_1707">
<rect width="16.8" height="16" fill="white" transform="translate(0.5 0.546875)"/>
</clipPath>
</defs>
</svg>
