<svg width="20" height="19" viewBox="0 0 20 19" fill="none" xmlns="http://www.w3.org/2000/svg">
<path d="M17.7778 0.25C19.0035 0.25 20 1.40112 20 2.82143V4.10714H0V2.82143C0 1.40112 0.994792 0.25 2.22222 0.25H17.7778ZM20 15.6786C20 17.0969 19.0035 18.25 17.7778 18.25H2.22222C0.994792 18.25 0 17.0969 0 15.6786V7.96429H20V15.6786ZM3.88889 13.1071C3.58333 13.1071 3.33333 13.3964 3.33333 13.75C3.33333 14.1036 3.58333 14.3929 3.88889 14.3929H6.11111C6.41667 14.3929 6.66667 14.1036 6.66667 13.75C6.66667 13.3964 6.41667 13.1071 6.11111 13.1071H3.88889ZM8.33333 14.3929H12.7778C13.0833 14.3929 13.3333 14.1036 13.3333 13.75C13.3333 13.3964 13.0833 13.1071 12.7778 13.1071H8.33333C8.02778 13.1071 7.77778 13.3964 7.77778 13.75C7.77778 14.1036 8.02778 14.3929 8.33333 14.3929Z" fill="#DADEE5"/>
</svg>
